<svg width="60" height="60" viewBox="0 0 60 60" xmlns="http://www.w3.org/2000/svg"><title>social-instagram</title><path d="M29.992 4c-7.06 0-7.944.03-10.717.156-2.766.127-4.656.566-6.309 1.209-1.709.664-3.159 1.552-4.604 2.997-1.445 1.445-2.333 2.895-2.997 4.604-.643 1.653-1.082 3.543-1.209 6.31C4.03 22.047 4 22.932 4 29.991c0 7.059.03 7.944.156 10.716.127 2.767.566 4.656 1.209 6.31.664 1.709 1.552 3.158 2.997 4.603 1.445 1.445 2.895 2.334 4.604 2.998 1.653.643 3.543 1.082 6.31 1.208 2.772.127 3.657.157 10.716.157 7.059 0 7.944-.03 10.716-.157 2.767-.126 4.656-.565 6.31-1.208 1.709-.664 3.158-1.553 4.603-2.998 1.445-1.445 2.334-2.894 2.998-4.604.643-1.653 1.082-3.542 1.208-6.309.127-2.772.157-3.657.157-10.716 0-7.06-.03-7.944-.157-10.717-.126-2.766-.565-4.656-1.208-6.309-.664-1.709-1.553-3.159-2.998-4.604-1.445-1.445-2.894-2.333-4.604-2.997-1.653-.643-3.542-1.082-6.309-1.209C37.936 4.03 37.051 4 29.992 4zm0 4.683c6.94 0 7.762.027 10.503.152 2.534.115 3.91.539 4.826.895 1.213.471 2.08 1.034 2.989 1.944.91.91 1.472 1.775 1.944 2.989.356.915.78 2.292.895 4.826.125 2.74.151 3.563.151 10.503 0 6.94-.026 7.762-.151 10.503-.116 2.534-.54 3.91-.895 4.826-.472 1.213-1.035 2.08-1.944 2.989-.91.91-1.776 1.472-2.989 1.944-.916.356-2.292.78-4.826.895-2.74.125-3.563.151-10.503.151-6.94 0-7.763-.026-10.503-.151-2.534-.116-3.91-.54-4.826-.895-1.214-.472-2.08-1.035-2.989-1.944-.91-.91-1.473-1.776-1.944-2.989-.356-.916-.78-2.292-.895-4.826-.125-2.741-.152-3.563-.152-10.503 0-6.94.027-7.762.152-10.503.115-2.534.539-3.91.895-4.826.471-1.214 1.034-2.08 1.944-2.989.91-.91 1.775-1.473 2.989-1.944.915-.356 2.292-.78 4.826-.895 2.74-.125 3.563-.152 10.503-.152zm0 29.973a8.664 8.664 0 1 1 0-17.328 8.664 8.664 0 0 1 0 17.328zm0-22.011c-7.372 0-13.347 5.975-13.347 13.347 0 7.371 5.975 13.347 13.347 13.347 7.371 0 13.347-5.976 13.347-13.347 0-7.372-5.976-13.347-13.347-13.347zm16.993-.528a3.119 3.119 0 1 1-6.238 0 3.119 3.119 0 0 1 6.238 0" fill-rule="evenodd"/></svg>