<svg width="60" height="60" viewBox="0 0 60 60" xmlns="http://www.w3.org/2000/svg"><title>social-linkedin</title><path d="M47.606 47.607h-7.41V36.003c0-2.769-.052-6.328-3.854-6.328-3.86 0-4.45 3.015-4.45 6.127v11.805H24.48V23.745h7.114v3.26h.098c.99-1.875 3.41-3.854 7.017-3.854 7.51 0 8.896 4.942 8.896 11.367v13.089zM16.123 20.483a4.3 4.3 0 1 1-.002-8.599 4.3 4.3 0 0 1 .002 8.6zm-3.71 27.124h7.417V23.745h-7.417v23.862zM51.3 5H8.69C6.656 5 5 6.614 5 8.604v42.788C5 53.384 6.655 55 8.69 55H51.3c2.04 0 3.7-1.616 3.7-3.608V8.604C55 6.614 53.34 5 51.3 5z" fill-rule="evenodd"/></svg>