<svg width="60" height="60" viewBox="0 0 60 60" xmlns="http://www.w3.org/2000/svg"><title>social-email</title><path d="M5.006 14.753a5.058 5.058 0 0 0-.006.245v30.004A5.007 5.007 0 0 0 10.009 50H49.99A5.006 5.006 0 0 0 55 45.002V14.998c0-.24-.017-.476-.05-.707L36.817 32.424c-3.905 3.905-10.242 3.898-14.14 0L5.006 14.753zM7.824 10.5l18.388 18.388a5.005 5.005 0 0 0 7.07 0l18.542-18.542A4.999 4.999 0 0 0 49.991 10H10.01c-.783 0-1.525.18-2.185.5zM0 14.998C0 9.476 4.485 5 10.009 5H49.99C55.52 5 60 9.481 60 14.998v30.004C60 50.524 55.515 55 49.991 55H10.01C4.48 55 0 50.519 0 45.002V14.998z"/></svg>